<svg xmlns="http://www.w3.org/2000/svg" viewBox="0 0 240 120" role="img" aria-labelledby="title">
  <title id="title">Sangfor</title>
  <rect width="240" height="120" fill="#fff"/>
  <g transform="translate(34 33)">
    <ellipse cx="33" cy="27" rx="31" ry="23" fill="#2d78c8"/>
    <path d="M4 27c16-15 40-20 59-9-6-14-23-22-41-17C10 5 2 15 4 27Z" fill="#5aba47"/>
    <path d="M4 32c17 9 39 7 58-5-4 17-23 28-42 23C10 48 3 41 4 32Z" fill="#70be45"/>
    <path d="M11 23c15 3 32 2 48-4" fill="none" stroke="#fff" stroke-width="4" opacity=".85"/>
    <path d="M11 34c15 3 32 2 48-4" fill="none" stroke="#fff" stroke-width="4" opacity=".85"/>
  </g>
  <text x="148" y="72" text-anchor="middle" fill="#24262a" font-family="Arial, Helvetica, sans-serif" font-size="30" font-weight="800">SANGFOR</text>
</svg>
